<svg width="41" height="74" viewBox="0 0 41 74" fill="none" xmlns="http://www.w3.org/2000/svg">
<path d="M25.625 5.28758C25.625 3.33853 24.584 1.55465 22.9184 0.629672C21.2527 -0.295303 19.2348 -0.196198 17.6652 0.893951L2.29023 11.4651C-0.0800781 13.0838 -0.704688 16.3542 0.864844 18.7988C2.43438 21.2434 5.62148 21.8876 7.97578 20.2689L15.375 15.165V63.4289H5.125C2.29023 63.4289 0 65.7908 0 68.7144C0 71.638 2.29023 74 5.125 74H35.875C38.7098 74 41 71.638 41 68.7144C41 65.7908 38.7098 63.4289 35.875 63.4289H25.625V5.28758Z" fill="#3D5567"/>
</svg>
