<svg width="32" height="32" viewBox="0 0 32 32" fill="none" xmlns="http://www.w3.org/2000/svg">
<path d="M3.59641 10.8403L4.25828 10.6643L4.33345 9.98357C4.8905 4.93849 9.92999 1 16 1C22.07 1 27.1095 4.93849 27.6666 9.98357L27.7417 10.6643L28.4036 10.8403C29.1521 11.0393 29.8109 11.4758 30.2794 12.0794C30.7477 12.6829 31.0002 13.4201 31 14.177V14.1772V19.038V19.0383C31.0003 19.7974 30.7463 20.5369 30.2755 21.1413C29.8045 21.7459 29.1424 22.182 28.3908 22.3788L27.7466 22.5475L27.6539 23.2069C27.1969 26.4552 24.3657 28.9747 20.9231 28.9747H19.0441H18.3731L18.1188 29.5956C17.922 30.0758 17.561 30.4764 17.0945 30.7263C16.6278 30.9763 16.0862 31.0588 15.5633 30.9583C15.0405 30.8578 14.5719 30.5814 14.2365 30.1796C13.9013 29.7781 13.7195 29.276 13.7195 28.7595C13.7195 28.243 13.9013 27.7409 14.2365 27.3394C14.5719 26.9375 15.0405 26.6611 15.5633 26.5607C16.0862 26.4602 16.6278 26.5427 17.0945 26.7927C17.561 27.0425 17.922 27.4432 18.1188 27.9234L18.3731 28.5443H19.0441H20.9229C20.9229 28.5443 20.923 28.5443 20.9231 28.5443C22.3455 28.5446 23.728 28.071 24.8466 27.198C25.9656 26.3248 26.7556 25.1025 27.086 23.7272L27.3823 22.4937H26.1136H23.3846C23.2455 22.4937 23.1538 22.385 23.1538 22.2785V10.9367C23.1538 10.8838 23.175 10.8304 23.2169 10.789C23.2592 10.7472 23.3193 10.7215 23.3846 10.7215H26.1497H27.341L27.1346 9.54827C26.3289 4.9681 21.6948 1.43038 16 1.43038C10.3052 1.43038 5.67108 4.9681 4.86538 9.54827L4.65899 10.7215H5.85026H8.61539C8.68067 10.7215 8.74075 10.7472 8.78308 10.789C8.82498 10.8304 8.84615 10.8838 8.84615 10.9367V22.2785C8.84615 22.3314 8.82498 22.3848 8.78308 22.4261C8.74076 22.4679 8.68067 22.4937 8.61539 22.4937H4.51282C3.57708 22.4937 2.68219 22.1265 2.02436 21.477C1.36696 20.8279 1 19.9503 1 19.038V14.1772V14.177C0.999839 13.4201 1.25234 12.6829 1.72062 12.0794C2.18908 11.4758 2.84786 11.0393 3.59641 10.8403Z" fill="#F8F8F8" stroke="white" stroke-width="2"/>
</svg>
