<svg width="123" height="84" viewBox="0 0 123 84" fill="none" xmlns="http://www.w3.org/2000/svg">
<path d="M61.1111 0.000556833C55.603 -0.0756664 55.603 7.69911 61.1111 7.62288H73.3333V17.2727L50.4941 35.0633L42.5578 15.2452H44.8148C50.323 15.3214 50.323 7.54666 44.8148 7.62288H28.5185C23.0104 7.54666 23.0104 15.3214 28.5185 15.2452H33.8311L41.0911 33.3482C37.1948 31.4939 32.89 30.5152 28.5185 30.4899C12.817 30.4899 0 42.4798 0 57.168C0 71.8562 12.817 83.8462 28.5185 83.8462C44.22 83.8462 57.037 71.8562 57.037 57.168C57.037 52.061 55.4074 47.3276 52.7185 43.2649L75.7045 25.3524L79.477 34.1943C70.9704 38.8287 65.1852 47.3428 65.1852 57.168C65.1852 71.8562 78.0022 83.8462 93.7037 83.8462C109.405 83.8462 122.222 71.8562 122.222 57.168C122.222 42.4798 109.405 30.4899 93.7037 30.4899C91.3978 30.4899 89.1896 30.8176 87.0385 31.3055L81.4815 18.3094V3.81172C81.4815 2.80094 81.0523 1.83155 80.2882 1.11682C79.5242 0.40209 78.4879 0.000556833 77.4074 0.000556833H61.1111ZM28.5185 38.1122C33.1325 38.1228 37.6037 39.6103 41.1889 42.3273L25.9111 54.2334C21.7474 57.4881 26.9541 63.3421 31.1259 60.1026L46.4037 48.1889C47.9356 50.872 48.8889 53.9057 48.8889 57.168C48.8889 67.7402 39.82 76.2238 28.5185 76.2238C17.217 76.2238 8.14815 67.7402 8.14815 57.168C8.14815 46.5958 17.217 38.1122 28.5185 38.1122ZM93.7037 38.1122C105.005 38.1122 114.074 46.5958 114.074 57.168C114.074 67.7402 105.005 76.2238 93.7037 76.2238C82.4022 76.2238 73.3333 67.7402 73.3333 57.168C73.3259 54.0113 74.1603 50.9027 75.7609 48.1237C77.3615 45.3447 79.6778 42.9831 82.5 41.2526L89.9148 58.5858C91.9193 63.3345 99.5296 60.4913 97.4926 55.7503L90.0941 38.4476C91.2593 38.2646 92.4652 38.1122 93.7037 38.1122Z" fill="#30E291"/>
</svg>
