<svg width="77" height="61" viewBox="0 0 77 61" fill="none" xmlns="http://www.w3.org/2000/svg">
<path d="M0 51.2955C0 53.8693 1.01406 56.3377 2.8191 58.1576C4.62413 59.9776 7.07229 61 9.625 61H67.375C69.9277 61 72.3759 59.9776 74.1809 58.1576C75.9859 56.3377 77 53.8693 77 51.2955V24.608H0V51.2955ZM11.3438 38.125C11.3438 36.7462 11.887 35.4238 12.854 34.4488C13.821 33.4739 15.1325 32.9261 16.5 32.9261H24.75C26.1175 32.9261 27.429 33.4739 28.396 34.4488C29.363 35.4238 29.9062 36.7462 29.9062 38.125V41.5909C29.9062 42.9697 29.363 44.2921 28.396 45.2671C27.429 46.242 26.1175 46.7898 24.75 46.7898H16.5C15.1325 46.7898 13.821 46.242 12.854 45.2671C11.887 44.2921 11.3438 42.9697 11.3438 41.5909V38.125ZM67.375 0H9.625C7.07229 0 4.62413 1.02244 2.8191 2.8424C1.01406 4.66235 0 7.13074 0 9.70455V14.2102H77V9.70455C77 7.13074 75.9859 4.66235 74.1809 2.8424C72.3759 1.02244 69.9277 0 67.375 0Z" fill="#3D5567"/>
</svg>
