<svg width="74" height="74" viewBox="0 0 74 74" fill="none" xmlns="http://www.w3.org/2000/svg">
<path d="M55.5007 4.9576C61.0813 8.17977 65.7237 12.8035 68.9682 18.3712C72.2126 23.9389 73.9467 30.2574 73.9988 36.7012C74.0508 43.145 72.419 49.4906 69.2649 55.11C66.1108 60.7293 61.5438 65.4275 56.0159 68.7394C50.488 72.0513 44.191 73.862 37.7482 73.9924C31.3055 74.1228 24.9403 72.5683 19.283 69.4828C13.6256 66.3973 8.87223 61.8877 5.49333 56.4006C2.11444 50.9135 0.227217 44.639 0.0185007 38.1984L0 36.9996L0.0185007 35.8008C0.225715 29.4109 2.08515 23.1837 5.41553 17.7263C8.74591 12.2689 13.4336 7.76757 19.0215 4.66117C24.6095 1.55476 30.907 -0.0507299 37.3002 0.00122191C43.6933 0.0531737 49.964 1.76079 55.5007 4.9576ZM37.0005 14.7996C36.0942 14.7997 35.2195 15.1324 34.5422 15.7346C33.865 16.3369 33.4323 17.1667 33.3263 18.0667L33.3004 18.4996V36.9996L33.3337 37.4843C33.4181 38.1262 33.6694 38.7348 34.0626 39.2492L34.3845 39.6192L45.4847 50.7192L45.8325 51.0226C46.4814 51.526 47.2793 51.7993 48.1006 51.7993C48.9219 51.7993 49.7198 51.526 50.3687 51.0226L50.7165 50.7155L51.0236 50.3677C51.5271 49.7188 51.8003 48.9209 51.8003 48.0996C51.8003 47.2783 51.5271 46.4804 51.0236 45.8315L50.7165 45.4837L40.7005 35.4641V18.4996L40.6746 18.0667C40.5686 17.1667 40.1359 16.3369 39.4587 15.7346C38.7814 15.1324 37.9067 14.7997 37.0005 14.7996Z" fill="#3D5567"/>
</svg>
