<svg width="54" height="54" viewBox="0 0 54 54" fill="none" xmlns="http://www.w3.org/2000/svg">
<path d="M2.25 2.25006C3.18764 1.31271 4.45918 0.786133 5.785 0.786133C7.11082 0.786133 8.38237 1.31271 9.32 2.25006L27 19.9301L44.68 2.25006C45.623 1.33927 46.886 0.835303 48.197 0.846695C49.508 0.858087 50.7621 1.38393 51.6891 2.31097C52.6161 3.23801 53.142 4.49208 53.1534 5.80306C53.1648 7.11404 52.6608 8.37706 51.75 9.32007L34.07 27.0001L51.75 44.6801C52.6608 45.6231 53.1648 46.8861 53.1534 48.1971C53.142 49.5081 52.6161 50.7621 51.6891 51.6892C50.7621 52.6162 49.508 53.142 48.197 53.1534C46.886 53.1648 45.623 52.6609 44.68 51.7501L27 34.0701L9.32 51.7501C8.37699 52.6609 7.11398 53.1648 5.803 53.1534C4.49201 53.142 3.23795 52.6162 2.31091 51.6892C1.38387 50.7621 0.858026 49.5081 0.846634 48.1971C0.835242 46.8861 1.33921 45.6231 2.25 44.6801L19.93 27.0001L2.25 9.32007C1.31265 8.38243 0.786072 7.11089 0.786072 5.78506C0.786072 4.45924 1.31265 3.1877 2.25 2.25006Z" fill="#BBBBBB"/>
</svg>
