<svg width="19" height="19" viewBox="0 0 19 19" fill="none" xmlns="http://www.w3.org/2000/svg">
<path d="M6.79541 3.23762C7.99903 1.07921 8.60037 0 9.5 0C10.3996 0 11.001 1.07921 12.2046 3.23762L12.5162 3.79622C12.8582 4.40993 13.0292 4.71678 13.2952 4.91913C13.5612 5.12148 13.8936 5.19653 14.5586 5.34663L15.1628 5.48343C17.4998 6.01259 18.6673 6.27669 18.9456 7.17065C19.223 8.06365 18.4269 8.99561 16.8338 10.8586L16.4215 11.3402C15.9693 11.8694 15.7423 12.1344 15.6407 12.4612C15.539 12.789 15.5732 13.1424 15.6416 13.8482L15.7043 14.4914C15.9446 16.9776 16.0653 18.2202 15.3376 18.7721C14.6099 19.3241 13.5156 18.8206 11.3287 17.8136L10.7616 17.5533C10.1403 17.2664 9.82964 17.1239 9.5 17.1239C9.17036 17.1239 8.85971 17.2664 8.23843 17.5533L7.67224 17.8136C5.48444 18.8206 4.39007 19.3241 3.66334 18.7731C2.9347 18.2202 3.05535 16.9776 3.2957 14.4914L3.35839 13.8492C3.42679 13.1424 3.46099 12.789 3.35839 12.4622C3.2577 12.1344 3.03065 11.8694 2.57846 11.3412L2.16617 10.8586C0.57306 8.99656 -0.223022 8.0646 0.054372 7.17065C0.331765 6.27669 1.50119 6.01164 3.83813 5.48343L4.44232 5.34663C5.10635 5.19653 5.4379 5.12148 5.70484 4.91913C5.97178 4.71678 6.14183 4.40993 6.48382 3.79622L6.79541 3.23762Z" fill="white"/>
</svg>
