<svg width="71" height="86" viewBox="0 0 71 86" fill="none" xmlns="http://www.w3.org/2000/svg">
<path d="M58.8559 30.3851H50.892V5.15533C50.892 2.38006 48.6381 0.109375 45.8833 0.109375H25.8485C23.0937 0.109375 20.8398 2.38006 20.8398 5.15533V30.3851H12.8759C8.41817 30.3851 6.16425 35.8347 9.31974 39.0137L32.3097 62.1746C34.2631 64.1426 37.4186 64.1426 39.372 62.1746L62.362 39.0137C65.5175 35.8347 63.3136 30.3851 58.8559 30.3851ZM0.804932 80.8447C0.804932 83.6199 3.05885 85.8906 5.81364 85.8906H65.9182C68.673 85.8906 70.9269 83.6199 70.9269 80.8447C70.9269 78.0694 68.673 75.7987 65.9182 75.7987H5.81364C3.05885 75.7987 0.804932 78.0694 0.804932 80.8447Z" fill="#30E291"/>
</svg>
