<svg width="28" height="29" viewBox="0 0 28 29" fill="none" xmlns="http://www.w3.org/2000/svg">
<path fill-rule="evenodd" clip-rule="evenodd" d="M26.0644 0.430664H1.8151C0.983713 0.430664 0.310425 1.12567 0.310425 1.98388V27.0154C0.310425 27.8736 0.983713 28.5686 1.8151 28.5686H14.8693V17.6722H11.3175V13.4262H14.8693V10.293C14.8693 6.65759 17.02 4.67949 20.1615 4.67949C21.6662 4.67949 22.9582 4.79486 23.3358 4.84691V8.64553H21.1578C19.4487 8.64553 19.1189 9.48404 19.1189 10.7137V13.4248H23.1927L22.6611 17.6708H19.1175V28.5686H26.0644C26.8958 28.5686 27.569 27.8736 27.569 27.0154V1.98388C27.569 1.12567 26.8958 0.430664 26.0644 0.430664Z" fill="white"/>
</svg>
