<svg width="28" height="26" viewBox="0 0 28 26" fill="none" xmlns="http://www.w3.org/2000/svg">
<path d="M7.01465 10.0001C6.81628 9.99719 6.62152 10.0533 6.45516 10.1614C6.28879 10.2695 6.15835 10.4247 6.08041 10.6071C6.00246 10.7896 5.98055 10.9911 6.01745 11.186C6.05436 11.381 6.14841 11.5605 6.28766 11.7018C6.4269 11.8432 6.60503 11.9399 6.79939 11.9797C6.99375 12.0195 7.19555 12.0005 7.37913 11.9253C7.5627 11.8501 7.71975 11.7219 7.83029 11.5572C7.94083 11.3924 7.99987 11.1985 7.99989 11.0001C8.00184 10.8695 7.97779 10.7398 7.92915 10.6185C7.88051 10.4973 7.80825 10.3869 7.71656 10.2939C7.62488 10.2008 7.51562 10.1269 7.39511 10.0765C7.27461 10.026 7.14528 10.0001 7.01465 10.0001Z" fill="white"/>
<path d="M16.0069 10C15.8747 10 15.7437 10.026 15.6216 10.0766C15.4994 10.1272 15.3884 10.2014 15.2949 10.2949C15.2014 10.3884 15.1272 10.4994 15.0766 10.6216C15.026 10.7437 15 10.8747 15 11.0069C15.0036 11.2715 15.1113 11.5241 15.2997 11.71C15.4882 11.8958 15.7422 12 16.0069 12C16.2703 12 16.5229 11.8954 16.7091 11.7091C16.8954 11.5229 17 11.2703 17 11.0069C17 10.7422 16.8958 10.4882 16.71 10.2997C16.5241 10.1113 16.2715 10.0036 16.0069 10Z" fill="white"/>
<path d="M23.9177 0.557155H3.94757C2.98291 0.557155 2.05775 0.935881 1.37563 1.61002C0.693512 2.28416 0.310303 3.19849 0.310303 4.15187V15.9001C0.310303 16.8535 0.693512 17.7678 1.37563 18.4419C2.05775 19.1161 2.98291 19.4948 3.94757 19.4948H11.0131L13.4101 25.0866C13.4101 25.0866 13.5634 25.5686 13.9675 25.5686C14.3716 25.5686 14.5389 25.0866 14.5389 25.0866L16.9358 19.4948H23.9038C24.3838 19.4984 24.8597 19.4081 25.3043 19.2291C25.7488 19.0501 26.153 18.7859 26.4938 18.4517C26.8345 18.1176 27.1049 17.7201 27.2894 17.2821C27.4739 16.8442 27.5689 16.3745 27.5689 15.9001V4.15187C27.5689 3.67864 27.4744 3.21007 27.2907 2.77304C27.1071 2.33601 26.8379 1.93911 26.4987 1.60513C26.1594 1.27115 25.7568 1.00666 25.3139 0.826818C24.871 0.646979 24.3965 0.555342 23.9177 0.557155ZM8.82514 10.9006C8.8326 11.4863 8.60523 12.0512 8.19268 12.4718C7.78013 12.8925 7.21591 13.1347 6.62326 13.1455C6.36403 13.1522 6.10625 13.1054 5.86631 13.0082C5.62638 12.911 5.40956 12.7654 5.22967 12.5808V12.9665H3.64098V6.25911C3.73853 6.25911 5.27148 6.25911 5.27148 6.25911V8.80708C5.64775 8.15976 6.76262 8.17353 6.76262 8.17353C7.08303 8.21007 7.39252 8.31089 7.67211 8.4698C7.95171 8.62871 8.19553 8.84237 8.38863 9.09769C8.58174 9.353 8.72006 9.6446 8.79511 9.95461C8.87017 10.2646 8.88039 10.5865 8.82514 10.9006ZM11.6959 8.38013V12.9389H10.2187V8.43522C10.2187 7.81544 9.45225 7.65017 9.45225 7.65017V6.05251C9.76172 6.04013 10.0704 6.09242 10.358 6.20595C10.6456 6.31948 10.9058 6.4917 11.1215 6.71138C11.3372 6.93105 11.5036 7.19322 11.6098 7.48077C11.7159 7.76832 11.7596 8.07478 11.7377 8.38013H11.6959ZM15.5283 13.1455C15.0509 13.1054 14.5956 12.9287 14.2181 12.637C13.8406 12.3453 13.5572 11.9513 13.4026 11.5031C13.248 11.0549 13.2289 10.5718 13.3475 10.113C13.4661 9.65421 13.7174 9.23947 14.0706 8.91947C14.4238 8.59948 14.8637 8.38809 15.3365 8.31112C15.8093 8.23416 16.2945 8.29496 16.7329 8.48609C17.1713 8.67722 17.5439 8.9904 17.8051 9.38738C18.0664 9.78436 18.205 10.2479 18.204 10.7215C18.1715 11.3926 17.872 12.0238 17.3709 12.4777C16.8698 12.9317 16.2076 13.1717 15.5283 13.1455ZM24.28 13.1455C24.2878 13.4526 24.232 13.7581 24.1162 14.0432C24.0004 14.3283 23.827 14.587 23.6065 14.8036C23.3861 15.0202 23.1233 15.19 22.8341 15.3028C22.545 15.4156 22.2356 15.4688 21.9249 15.4594H21.2002V13.9306H21.6322C21.6322 13.9306 22.6356 14.0132 22.6217 12.5533C22.6217 12.5533 22.4266 13.1593 21.0191 13.1593C20.4866 13.1312 19.9851 12.9031 19.6173 12.5216C19.2494 12.1401 19.043 11.6341 19.0402 11.1071V10.391C19.0651 9.82081 19.3101 9.28176 19.7248 8.88468C20.1396 8.4876 20.6925 8.26268 21.2699 8.25617C21.5348 8.23505 21.8009 8.27938 22.0442 8.38517C22.2874 8.49096 22.5003 8.65488 22.6635 8.86217V8.38013H24.294L24.28 13.1455Z" fill="white"/>
<path d="M21.3533 9.93663C21.1556 9.93663 20.9622 9.99528 20.7978 10.1052C20.6334 10.215 20.5052 10.3712 20.4295 10.5539C20.3538 10.7366 20.334 10.9377 20.3726 11.1317C20.4112 11.3256 20.5064 11.5038 20.6463 11.6436C20.7861 11.7835 20.9643 11.8787 21.1583 11.9173C21.3522 11.9559 21.5533 11.9361 21.736 11.8604C21.9187 11.7847 22.0749 11.6566 22.1848 11.4921C22.2946 11.3277 22.3533 11.1343 22.3533 10.9366C22.3552 10.8047 22.3306 10.6739 22.281 10.5517C22.2315 10.4295 22.1579 10.3185 22.0646 10.2253C21.9714 10.132 21.8604 10.0585 21.7382 10.0089C21.6161 9.9593 21.4852 9.93473 21.3533 9.93663Z" fill="white"/>
</svg>
