<svg width="29" height="29" viewBox="0 0 29 29" fill="none" xmlns="http://www.w3.org/2000/svg">
<path d="M8.7153 0.430664H20.1639C24.5253 0.430664 28.0689 4.0886 28.0689 8.59066V20.4086C28.0689 22.5728 27.2361 24.6483 25.7536 26.1786C24.2711 27.7089 22.2605 28.5686 20.1639 28.5686H8.7153C4.35392 28.5686 0.810303 24.9107 0.810303 20.4086V8.59066C0.810303 6.4265 1.64315 4.35097 3.12562 2.82067C4.6081 1.29038 6.61877 0.430664 8.7153 0.430664ZM8.44272 3.24446C7.14142 3.24446 5.89342 3.77807 4.97326 4.72791C4.0531 5.67775 3.53616 6.96601 3.53616 8.30928V20.69C3.53616 23.4897 5.73048 25.7548 8.44272 25.7548H20.4365C21.7378 25.7548 22.9858 25.2212 23.906 24.2713C24.8261 23.3215 25.3431 22.0332 25.3431 20.69V8.30928C25.3431 5.50956 23.1487 3.24446 20.4365 3.24446H8.44272ZM21.595 5.3548C22.0468 5.3548 22.4802 5.54008 22.7997 5.86989C23.1192 6.1997 23.2987 6.64701 23.2987 7.11342C23.2987 7.57984 23.1192 8.02715 22.7997 8.35695C22.4802 8.68676 22.0468 8.87204 21.595 8.87204C21.1432 8.87204 20.7098 8.68676 20.3903 8.35695C20.0708 8.02715 19.8913 7.57984 19.8913 7.11342C19.8913 6.64701 20.0708 6.1997 20.3903 5.86989C20.7098 5.54008 21.1432 5.3548 21.595 5.3548ZM14.4396 7.46515C16.247 7.46515 17.9803 8.20628 19.2583 9.5255C20.5363 10.8447 21.2543 12.634 21.2543 14.4996C21.2543 16.3653 20.5363 18.1545 19.2583 19.4738C17.9803 20.793 16.247 21.5341 14.4396 21.5341C12.6323 21.5341 10.8989 20.793 9.62092 19.4738C8.34293 18.1545 7.62496 16.3653 7.62496 14.4996C7.62496 12.634 8.34293 10.8447 9.62092 9.5255C10.8989 8.20628 12.6323 7.46515 14.4396 7.46515ZM14.4396 10.2789C13.3552 10.2789 12.3152 10.7236 11.5484 11.5152C10.7816 12.3067 10.3508 13.3802 10.3508 14.4996C10.3508 15.619 10.7816 16.6926 11.5484 17.4841C12.3152 18.2756 13.3552 18.7203 14.4396 18.7203C15.524 18.7203 16.564 18.2756 17.3308 17.4841C18.0976 16.6926 18.5284 15.619 18.5284 14.4996C18.5284 13.3802 18.0976 12.3067 17.3308 11.5152C16.564 10.7236 15.524 10.2789 14.4396 10.2789Z" fill="white"/>
</svg>
