<svg width="85" height="84" viewBox="0 0 85 84" fill="none" xmlns="http://www.w3.org/2000/svg">
<path d="M35.4053 73.855V41.797M46.3554 27.549H26.2802C23.8601 27.549 21.5391 26.6108 19.8278 24.9408C18.1165 23.2708 17.1552 21.0058 17.1552 18.644C17.1552 16.2823 18.1165 14.0172 19.8278 12.3472C21.5391 10.6772 23.8601 9.73901 26.2802 9.73901C31.7553 9.73901 36.7741 14.1915 40.4241 18.644M50.0054 73.855V41.797M17.1552 41.797H68.2555V70.293C68.2555 71.2377 67.871 72.1437 67.1865 72.8117C66.502 73.4797 65.5736 73.855 64.6055 73.855H20.8052C19.8371 73.855 18.9087 73.4797 18.2242 72.8117C17.5397 72.1437 17.1552 71.2377 17.1552 70.293V41.797ZM13.5051 27.549H71.9056C72.8736 27.549 73.802 27.9243 74.4865 28.5923C75.171 29.2603 75.5556 30.1663 75.5556 31.111V41.797H9.8551V31.111C9.8551 30.1663 10.2397 29.2603 10.9242 28.5923C11.6087 27.9243 12.5371 27.549 13.5051 27.549ZM57.8712 9.73901C46.9211 9.73901 37.7961 27.549 37.7961 27.549H57.8712C60.2913 27.549 62.6123 26.6108 64.3236 24.9408C66.0349 23.2708 66.9963 21.0058 66.9963 18.644C66.9963 16.2823 66.0349 14.0172 64.3236 12.3472C62.6123 10.6772 60.2913 9.73901 57.8712 9.73901Z" stroke="white" stroke-width="5" stroke-linecap="round" stroke-linejoin="round"/>
</svg>
