<svg width="22" height="22" viewBox="0 0 22 22" fill="none" xmlns="http://www.w3.org/2000/svg">
<path d="M12.8172 0.150601C11.6162 -0.0502004 10.3901 -0.0502004 9.18906 0.150601C8.81942 0.652249 8.45859 1.30021 8.12966 2.09118C7.81943 2.83486 7.5466 3.68194 7.31998 4.61152C8.54264 4.47087 9.77241 4.40108 11.0031 4.4025C12.2737 4.4025 13.5092 4.47511 14.6863 4.61152C14.482 3.75222 14.2117 2.90997 13.8777 2.09229C13.5477 1.30021 13.1868 0.651148 12.8172 0.150601ZM15.1197 6.88654C13.7558 6.69662 12.3802 6.60178 11.0031 6.60271C9.55319 6.60271 8.16926 6.70392 6.88654 6.88654C6.69662 8.2505 6.60178 9.62601 6.60271 11.0031C6.60271 12.4531 6.70392 13.837 6.88654 15.1197C8.16926 15.3023 9.55319 15.4035 11.0031 15.4035C12.4531 15.4035 13.837 15.3034 15.1197 15.1197C15.3023 13.837 15.4035 12.4531 15.4035 11.0031C15.4035 9.55319 15.3034 8.16926 15.1197 6.88654ZM17.3947 14.6863C17.5311 13.5092 17.6038 12.2737 17.6038 11.0031C17.6052 9.77241 17.5354 8.54264 17.3947 7.31998C18.2541 7.52463 19.0963 7.79533 19.914 8.12966C20.706 8.45969 21.3551 8.81942 21.8557 9.18906C22.0565 10.3901 22.0565 11.6162 21.8557 12.8172C21.3551 13.1868 20.706 13.5477 19.9151 13.8777C19.1714 14.1868 18.3243 14.4608 17.3947 14.6863ZM14.6863 17.3947C13.4636 17.5354 12.2338 17.6052 11.0031 17.6038C9.77241 17.6052 8.54264 17.5354 7.31998 17.3947C7.5466 18.3243 7.81943 19.1714 8.12966 19.914C8.45969 20.706 8.81942 21.3551 9.18906 21.8557C10.3901 22.0565 11.6162 22.0565 12.8172 21.8557C13.1868 21.3551 13.5477 20.706 13.8777 19.9151C14.1868 19.1714 14.4608 18.3243 14.6863 17.3947ZM15.859 20.8777L15.9085 20.7611C16.365 19.6654 16.7424 18.4035 17.024 17.024C18.1542 16.7999 19.264 16.4827 20.3419 16.0757L20.8777 15.859C19.8025 18.0385 18.0385 19.8025 15.859 20.8777ZM6.14727 20.8777L6.09776 20.7611C5.64122 19.6654 5.26389 18.4035 4.98226 17.024C3.85204 16.7999 2.74229 16.4827 1.66434 16.0757L1.12859 15.859C2.2038 18.0385 3.9678 19.8025 6.14727 20.8777ZM4.61152 14.6863C4.47087 13.4636 4.40108 12.2338 4.4025 11.0031C4.4025 9.73251 4.47511 8.49709 4.61152 7.31998C3.68194 7.5466 2.83486 7.81943 2.09229 8.12966C1.30021 8.45969 0.651148 8.81942 0.150601 9.18906C-0.0502004 10.3901 -0.0502004 11.6162 0.150601 12.8172C0.652249 13.1868 1.30021 13.5477 2.09118 13.8777C2.83486 14.1868 3.68194 14.4608 4.61152 14.6863ZM4.98226 4.98336C5.20661 3.85236 5.52415 2.74187 5.93165 1.66324L6.14837 1.12749C3.9689 2.2027 2.2049 3.9667 1.12969 6.14617L1.2463 6.09666C2.34201 5.64012 3.60383 5.26278 4.98336 4.98116M17.0251 4.98116C16.8011 3.85057 16.4839 2.74044 16.0768 1.66214L15.8601 1.12639C18.0396 2.2016 19.8036 3.9656 20.8788 6.14507L20.7622 6.09556C19.6665 5.63902 18.4046 5.26278 17.0251 4.98116Z" fill="#30E291"/>
</svg>
