<svg width="80" height="49" viewBox="0 0 80 49" fill="none" xmlns="http://www.w3.org/2000/svg">
<path d="M0.0512695 13.6111C0.0512695 10.0012 1.55444 6.53918 4.23009 3.9866C6.90575 1.43402 10.5347 0 14.3187 0H65.6813C69.4653 0 73.0942 1.43402 75.7699 3.9866C78.4455 6.53918 79.9487 10.0012 79.9487 13.6111V35.3889C79.9487 37.1763 79.5797 38.9463 78.8627 40.5976C78.1457 42.249 77.0947 43.7495 75.7699 45.0134C74.445 46.2773 72.8722 47.2799 71.1412 47.9639C69.4102 48.6479 67.5549 49 65.6813 49H14.3187C10.5347 49 6.90575 47.566 4.23009 45.0134C1.55444 42.4608 0.0512695 38.9988 0.0512695 35.3889V13.6111ZM23.7123 17.1282L20.0256 20.6508L16.3389 17.1282C16.0736 16.8751 15.7587 16.6744 15.412 16.5374C15.0654 16.4004 14.6939 16.3299 14.3187 16.3299C13.9435 16.3299 13.5719 16.4004 13.2253 16.5374C12.8787 16.6744 12.5637 16.8751 12.2984 17.1282C12.0331 17.3813 11.8226 17.6818 11.6791 18.0125C11.5355 18.3432 11.4616 18.6976 11.4616 19.0556C11.4616 19.4135 11.5355 19.7679 11.6791 20.0986C11.8226 20.4293 12.0331 20.7298 12.2984 20.9829L15.9908 24.5L12.2984 28.0171C12.0331 28.2702 11.8226 28.5707 11.6791 28.9014C11.5355 29.2321 11.4616 29.5865 11.4616 29.9444C11.4616 30.3024 11.5355 30.6568 11.6791 30.9875C11.8226 31.3182 12.0331 31.6187 12.2984 31.8718C12.8342 32.3829 13.5609 32.6701 14.3187 32.6701C14.6939 32.6701 15.0654 32.5996 15.412 32.4626C15.7587 32.3257 16.0736 32.1249 16.3389 31.8718L20.0256 28.3492L23.7123 31.8718C23.9776 32.1249 24.2926 32.3257 24.6392 32.4626C24.9859 32.5996 25.3574 32.6701 25.7326 32.6701C26.1078 32.6701 26.4793 32.5996 26.8259 32.4626C27.1726 32.3257 27.4875 32.1249 27.7529 31.8718C28.0182 31.6187 28.2286 31.3182 28.3722 30.9875C28.5158 30.6568 28.5897 30.3024 28.5897 29.9444C28.5897 29.5865 28.5158 29.2321 28.3722 28.9014C28.2286 28.5707 28.0182 28.2702 27.7529 28.0171L24.0604 24.5L27.7529 20.9829C28.0182 20.7298 28.2286 20.4293 28.3722 20.0986C28.5158 19.7679 28.5897 19.4135 28.5897 19.0556C28.5897 18.6976 28.5158 18.3432 28.3722 18.0125C28.2286 17.6818 28.0182 17.3813 27.7529 17.1282C27.4875 16.8751 27.1726 16.6744 26.8259 16.5374C26.4793 16.4004 26.1078 16.3299 25.7326 16.3299C25.3574 16.3299 24.9859 16.4004 24.6392 16.5374C24.2926 16.6744 23.9776 16.8751 23.7123 17.1282ZM46.5402 17.1282L42.8535 20.6508L39.1668 17.1282C38.9015 16.8751 38.5865 16.6744 38.2399 16.5374C37.8932 16.4004 37.5217 16.3299 37.1465 16.3299C36.7713 16.3299 36.3998 16.4004 36.0531 16.5374C35.7065 16.6744 35.3915 16.8751 35.1262 17.1282C34.8609 17.3813 34.6505 17.6818 34.5069 18.0125C34.3633 18.3432 34.2894 18.6976 34.2894 19.0556C34.2894 19.4135 34.3633 19.7679 34.5069 20.0986C34.6505 20.4293 34.8609 20.7298 35.1262 20.9829L38.8186 24.5L35.1262 28.0171C34.8609 28.2702 34.6505 28.5707 34.5069 28.9014C34.3633 29.2321 34.2894 29.5865 34.2894 29.9444C34.2894 30.3024 34.3633 30.6568 34.5069 30.9875C34.6505 31.3182 34.8609 31.6187 35.1262 31.8718C35.662 32.3829 36.3888 32.6701 37.1465 32.6701C37.5217 32.6701 37.8932 32.5996 38.2399 32.4626C38.5865 32.3257 38.9015 32.1249 39.1668 31.8718L42.8535 28.3492L46.5402 31.8718C47.076 32.3829 47.8027 32.6701 48.5604 32.6701C49.3182 32.6701 50.0449 32.3829 50.5807 31.8718C51.1165 31.3606 51.4175 30.6673 51.4175 29.9444C51.4175 29.2216 51.1165 28.5283 50.5807 28.0171L46.8883 24.5L50.5807 20.9829C51.1165 20.4717 51.4175 19.7784 51.4175 19.0556C51.4175 18.3327 51.1165 17.6394 50.5807 17.1282C50.0449 16.6171 49.3182 16.3299 48.5604 16.3299C47.8027 16.3299 47.076 16.6171 46.5402 17.1282ZM57.1209 29.9444C57.1209 30.6664 57.4215 31.3588 57.9566 31.8693C58.4918 32.3799 59.2176 32.6667 59.9743 32.6667H65.6813C66.4381 32.6667 67.1639 32.3799 67.699 31.8693C68.2341 31.3588 68.5348 30.6664 68.5348 29.9444C68.5348 29.2225 68.2341 28.5301 67.699 28.0195C67.1639 27.509 66.4381 27.2222 65.6813 27.2222H59.9743C59.2176 27.2222 58.4918 27.509 57.9566 28.0195C57.4215 28.5301 57.1209 29.2225 57.1209 29.9444Z" fill="#30E291"/>
</svg>
