<svg width="56" height="68" viewBox="0 0 56 68" fill="none" xmlns="http://www.w3.org/2000/svg">
<path fill-rule="evenodd" clip-rule="evenodd" d="M0.0973368 24.59C0.651793 17.8892 3.70475 11.6416 8.65055 7.08662C13.5963 2.53167 20.0736 0.00218858 26.7973 0H28.2373C34.9611 0.00218858 41.4383 2.53167 46.3841 7.08662C51.3299 11.6416 54.3829 17.8892 54.9373 24.59C55.5526 32.0714 53.2429 39.4998 48.494 45.3133L32.5173 64.8533C31.9118 65.5945 31.149 66.1918 30.2843 66.6019C29.4195 67.0121 28.4744 67.2248 27.5173 67.2248C26.5603 67.2248 25.6151 67.0121 24.7504 66.6019C23.8856 66.1918 23.1229 65.5945 22.5173 64.8533L6.544 45.3133C1.79388 39.5003 -0.517008 32.0718 0.0973368 24.59ZM27.5173 12.5C23.3181 12.5 19.2908 14.1682 16.3215 17.1375C13.3522 20.1068 11.684 24.1341 11.684 28.3333C11.684 32.5326 13.3522 36.5599 16.3215 39.5292C19.2908 42.4985 23.3181 44.1667 27.5173 44.1667C31.7166 44.1667 35.7439 42.4985 38.7132 39.5292C41.6825 36.5599 43.3507 32.5326 43.3507 28.3333C43.3507 24.1341 41.6825 20.1068 38.7132 17.1375C35.7439 14.1682 31.7166 12.5 27.5173 12.5Z" fill="#30E291"/>
<path d="M16.8506 27.8333C16.8506 24.9602 17.992 22.2047 20.0236 20.173C22.0552 18.1414 24.8107 17 27.6839 17C30.5571 17 33.3126 18.1414 35.3442 20.173C37.3759 22.2047 38.5173 24.9602 38.5173 27.8333C38.5173 30.7065 37.3759 33.462 35.3442 35.4937C33.3126 37.5253 30.5571 38.6667 27.6839 38.6667C24.8107 38.6667 22.0552 37.5253 20.0236 35.4937C17.992 33.462 16.8506 30.7065 16.8506 27.8333Z" fill="#30E291"/>
</svg>
