<svg width="74" height="74" viewBox="0 0 74 74" fill="none" xmlns="http://www.w3.org/2000/svg">
<path d="M55.5 4.95757C61.1247 8.20499 65.7956 12.8758 69.043 18.5005C72.2904 24.1252 74 30.5057 74 37.0005C74 43.4954 72.2903 49.8758 69.0428 55.5004C65.7953 61.1251 61.1244 65.7959 55.4996 69.0432C49.8748 72.2906 43.4943 74.0001 36.9994 74C30.5045 73.9999 24.1241 72.2902 18.4994 69.0426C12.8747 65.7951 8.20397 61.1242 4.95665 55.4994C1.70933 49.8746 -0.000164982 43.4942 1.19423e-08 36.9993L0.0185004 35.8005C0.225712 29.4107 2.08513 23.1835 5.41547 17.7261C8.74581 12.2688 13.4334 7.76752 19.0213 4.66113C24.6092 1.55475 30.9066 -0.0507295 37.2997 0.0012219C43.6928 0.0531733 49.9633 1.76078 55.5 4.95757ZM37 14.7995C36.0187 14.7995 35.0776 15.1893 34.3837 15.8832C33.6898 16.5771 33.3 17.5182 33.3 18.4995C30.3561 18.4995 27.5328 19.6689 25.4511 21.7506C23.3695 23.8322 22.2 26.6555 22.2 29.5994C22.2 32.5433 23.3695 35.3666 25.4511 37.4482C27.5328 39.5299 30.3561 40.6993 33.3 40.6993V48.0992C32.6864 48.1332 32.0737 48.0168 31.5153 47.7602C30.9569 47.5036 30.4696 47.1145 30.0958 46.6267L29.8442 46.253C29.338 45.4366 28.5341 44.8491 27.6025 44.6147C26.6709 44.3803 25.6847 44.5173 24.8524 44.9969C24.0201 45.4765 23.4069 46.261 23.1425 47.1845C22.8782 48.108 22.9833 49.0982 23.4358 49.9455C24.3802 51.5834 25.7273 52.9529 27.3493 53.9241C28.9714 54.8954 30.8146 55.4363 32.7043 55.4955H33.3C33.2992 56.4024 33.6315 57.278 34.2338 57.956C34.8361 58.634 35.6664 59.0672 36.5671 59.1733L37 59.1992C37.9813 59.1992 38.9224 58.8094 39.6163 58.1155C40.3102 57.4216 40.7 56.4805 40.7 55.4992L41.3512 55.4807C44.2357 55.314 46.9416 54.0291 48.8938 51.899C50.846 49.769 51.8907 46.9616 51.8059 44.0735C51.7211 41.1855 50.5135 38.4443 48.4397 36.4324C46.3659 34.4205 43.5893 33.2966 40.7 33.2994V25.8994C42.0246 25.855 43.1827 26.4174 43.9042 27.372L44.1558 27.7457C44.662 28.5621 45.4659 29.1496 46.3975 29.384C47.3291 29.6184 48.3153 29.4813 49.1476 29.0017C49.9799 28.5221 50.5931 27.7376 50.8575 26.8141C51.1218 25.8906 51.0167 24.9005 50.5642 24.0531C49.6203 22.4146 48.2734 21.0444 46.6513 20.0724C45.0292 19.1005 43.1857 18.559 41.2957 18.4995H40.7C40.7 17.5182 40.3102 16.5771 39.6163 15.8832C38.9224 15.1893 37.9813 14.7995 37 14.7995ZM40.7 40.6993C41.6813 40.6993 42.6224 41.0891 43.3163 41.783C44.0102 42.4769 44.4 43.418 44.4 44.3993C44.4 45.3806 44.0102 46.3217 43.3163 47.0156C42.6224 47.7094 41.6813 48.0992 40.7 48.0992V40.6993ZM33.3 25.8994V33.2994C32.3187 33.2994 31.3776 32.9095 30.6837 32.2157C29.9898 31.5218 29.6 30.5807 29.6 29.5994C29.6 28.6181 29.9898 27.677 30.6837 26.9831C31.3776 26.2892 32.3187 25.8994 33.3 25.8994Z" fill="#3D5567"/>
</svg>
