<svg width="28" height="25" viewBox="0 0 28 25" fill="none" xmlns="http://www.w3.org/2000/svg">
<path d="M27.2951 14.1972C27.7466 13.7464 28 13.1361 28 12.5C28 11.8639 27.7466 11.2536 27.2951 10.8028L17.6393 1.20302C17.4151 0.980134 17.149 0.803332 16.856 0.682708C16.5631 0.562084 16.2492 0.499999 15.9321 0.499999C15.2918 0.499999 14.6778 0.752883 14.225 1.20302C13.7722 1.65315 13.5179 2.26367 13.5179 2.90025C13.5179 3.53684 13.7722 4.14735 14.225 4.59749L19.7597 10.1001L2.41396 10.1001C1.77374 10.1001 1.15974 10.3529 0.707033 10.803C0.254327 11.2531 1.41063e-06 11.8635 1.38281e-06 12.5C1.35499e-06 13.1365 0.254327 13.7469 0.707033 14.197C1.15974 14.6471 1.77374 14.8999 2.41396 14.8999L19.7597 14.8999L14.225 20.4025C14.0008 20.6254 13.823 20.89 13.7016 21.1812C13.5803 21.4724 13.5179 21.7845 13.5179 22.0997C13.5179 22.415 13.5803 22.7271 13.7016 23.0183C13.823 23.3095 14.0008 23.5741 14.225 23.797C14.4492 24.0199 14.7153 24.1967 15.0082 24.3173C15.3011 24.4379 15.6151 24.5 15.9321 24.5C16.2492 24.5 16.5631 24.4379 16.856 24.3173C17.149 24.1967 17.4151 24.0199 17.6393 23.797L27.2951 14.1972Z" fill="white"/>
</svg>
