<svg width="32" height="8" viewBox="0 0 32 8" fill="none" xmlns="http://www.w3.org/2000/svg">
<path d="M3.55556 0.0805664C1.6 0.0805664 0 1.65557 0 3.58057C0 5.50557 1.6 7.08057 3.55556 7.08057C5.51111 7.08057 7.11111 5.50557 7.11111 3.58057C7.11111 1.65557 5.51111 0.0805664 3.55556 0.0805664ZM28.4444 0.0805664C26.4889 0.0805664 24.8889 1.65557 24.8889 3.58057C24.8889 5.50557 26.4889 7.08057 28.4444 7.08057C30.4 7.08057 32 5.50557 32 3.58057C32 1.65557 30.4 0.0805664 28.4444 0.0805664ZM16 0.0805664C14.0444 0.0805664 12.4444 1.65557 12.4444 3.58057C12.4444 5.50557 14.0444 7.08057 16 7.08057C17.9556 7.08057 19.5556 5.50557 19.5556 3.58057C19.5556 1.65557 17.9556 0.0805664 16 0.0805664Z" fill="#F8F8F8"/>
</svg>
