<svg width="43" height="56" viewBox="0 0 43 56" fill="none" xmlns="http://www.w3.org/2000/svg">
<path d="M5.33333 56C3.86667 56 2.61155 55.4782 1.568 54.4347C0.524444 53.3911 0.00177778 52.1351 0 50.6667V24C0 22.5333 0.522666 21.2782 1.568 20.2347C2.61333 19.1911 3.86844 18.6684 5.33333 18.6667H8V13.3333C8 9.64445 9.30044 6.50045 11.9013 3.90134C14.5022 1.30222 17.6462 0.0017796 21.3333 1.82025e-06C25.0204 -0.00177596 28.1653 1.29867 30.768 3.90134C33.3707 6.504 34.6702 9.648 34.6667 13.3333V18.6667H37.3333C38.8 18.6667 40.056 19.1893 41.1013 20.2347C42.1467 21.28 42.6684 22.5351 42.6667 24V50.6667C42.6667 52.1333 42.1449 53.3893 41.1013 54.4347C40.0578 55.48 38.8018 56.0018 37.3333 56H5.33333ZM21.3333 42.6667C22.8 42.6667 24.056 42.1449 25.1013 41.1013C26.1467 40.0578 26.6684 38.8018 26.6667 37.3333C26.6649 35.8649 26.1431 34.6098 25.1013 33.568C24.0596 32.5262 22.8036 32.0036 21.3333 32C19.8631 31.9964 18.608 32.5191 17.568 33.568C16.528 34.6169 16.0053 35.872 16 37.3333C15.9947 38.7947 16.5173 40.0507 17.568 41.1013C18.6187 42.152 19.8738 42.6738 21.3333 42.6667ZM13.3333 18.6667H29.3333V13.3333C29.3333 11.1111 28.5556 9.22222 27 7.66667C25.4444 6.11111 23.5556 5.33333 21.3333 5.33333C19.1111 5.33333 17.2222 6.11111 15.6667 7.66667C14.1111 9.22222 13.3333 11.1111 13.3333 13.3333V18.6667Z" fill="#30E291"/>
</svg>
