<svg width="108" height="101" viewBox="0 0 108 101" fill="none" xmlns="http://www.w3.org/2000/svg">
<path fill-rule="evenodd" clip-rule="evenodd" d="M0 7.21308C0 5.30772 0.812412 3.48041 2.25852 2.13312C3.70462 0.785829 5.66596 0.0289307 7.71106 0.0289307H30.8442C32.8893 0.0289307 34.8507 0.785829 36.2968 2.13312C37.7429 3.48041 38.5553 5.30772 38.5553 7.21308V28.7655C38.5553 30.6709 37.7429 32.4982 36.2968 33.8455C34.8507 35.1928 32.8893 35.9497 30.8442 35.9497H7.71106C5.66596 35.9497 3.70462 35.1928 2.25852 33.8455C0.812412 32.4982 0 30.6709 0 28.7655V7.21308ZM15.4221 21.5814V14.3972H23.1332V21.5814H15.4221ZM0 71.8704C0 69.965 0.812412 68.1377 2.25852 66.7904C3.70462 65.4431 5.66596 64.6862 7.71106 64.6862H30.8442C32.8893 64.6862 34.8507 65.4431 36.2968 66.7904C37.7429 68.1377 38.5553 69.965 38.5553 71.8704V93.4228C38.5553 95.3282 37.7429 97.1555 36.2968 98.5028C34.8507 99.8501 32.8893 100.607 30.8442 100.607H7.71106C5.66596 100.607 3.70462 99.8501 2.25852 98.5028C0.812412 97.1555 0 95.3282 0 93.4228V71.8704ZM15.4221 86.2387V79.0545H23.1332V86.2387H15.4221ZM77.1106 0.0289307C75.0655 0.0289307 73.1041 0.785829 71.658 2.13312C70.2119 3.48041 69.3995 5.30772 69.3995 7.21308V28.7655C69.3995 30.6709 70.2119 32.4982 71.658 33.8455C73.1041 35.1928 75.0655 35.9497 77.1106 35.9497H100.244C102.289 35.9497 104.25 35.1928 105.696 33.8455C107.142 32.4982 107.955 30.6709 107.955 28.7655V7.21308C107.955 5.30772 107.142 3.48041 105.696 2.13312C104.25 0.785829 102.289 0.0289307 100.244 0.0289307H77.1106ZM84.8216 14.3972V21.5814H92.5327V14.3972H84.8216Z" fill="#30E291"/>
<path d="M61.6885 7.21308C61.6885 5.30772 60.8761 3.48041 59.43 2.13312C57.9838 0.785829 56.0225 0.0289307 53.9774 0.0289307C51.9323 0.0289307 49.971 0.785829 48.5249 2.13312C47.0788 3.48041 46.2664 5.30772 46.2664 7.21308V14.3972C46.2664 16.3026 47.0788 18.1299 48.5249 19.4772C49.971 20.8245 51.9323 21.5814 53.9774 21.5814C56.0225 21.5814 57.9838 20.8245 59.43 19.4772C60.8761 18.1299 61.6885 16.3026 61.6885 14.3972V7.21308ZM53.9774 28.7655C56.0225 28.7655 57.9838 29.5224 59.43 30.8697C60.8761 32.217 61.6885 34.0443 61.6885 35.9497V43.1338H77.1106C79.1557 43.1338 81.117 43.8907 82.5631 45.238C84.0092 46.5853 84.8216 48.4126 84.8216 50.3179C84.8216 52.2233 84.0092 54.0506 82.5631 55.3979C81.117 56.7452 79.1557 57.5021 77.1106 57.5021H53.9774C51.9323 57.5021 49.971 56.7452 48.5249 55.3979C47.0788 54.0506 46.2664 52.2233 46.2664 50.3179V35.9497C46.2664 34.0443 47.0788 32.217 48.5249 30.8697C49.971 29.5224 51.9323 28.7655 53.9774 28.7655ZM100.244 43.1338C98.1987 43.1338 96.2373 43.8907 94.7912 45.238C93.3451 46.5853 92.5327 48.4126 92.5327 50.3179C92.5327 52.2233 93.3451 54.0506 94.7912 55.3979C96.2373 56.7452 98.1987 57.5021 100.244 57.5021C102.289 57.5021 104.25 56.7452 105.696 55.3979C107.142 54.0506 107.955 52.2233 107.955 50.3179C107.955 48.4126 107.142 46.5853 105.696 45.238C104.25 43.8907 102.289 43.1338 100.244 43.1338ZM46.2664 71.8704C46.2664 69.965 47.0788 68.1377 48.5249 66.7904C49.971 65.4431 51.9323 64.6862 53.9774 64.6862H61.6885C63.7336 64.6862 65.6949 65.4431 67.141 66.7904C68.5871 68.1377 69.3995 69.965 69.3995 71.8704C69.3995 73.7757 68.5871 75.6031 67.141 76.9503C65.6949 78.2976 63.7336 79.0545 61.6885 79.0545V93.4228C61.6885 95.3282 60.8761 97.1555 59.43 98.5028C57.9838 99.8501 56.0225 100.607 53.9774 100.607C51.9323 100.607 49.971 99.8501 48.5249 98.5028C47.0788 97.1555 46.2664 95.3282 46.2664 93.4228V71.8704ZM30.8442 57.5021C32.8893 57.5021 34.8507 56.7452 36.2968 55.3979C37.7429 54.0506 38.5553 52.2233 38.5553 50.3179C38.5553 48.4126 37.7429 46.5853 36.2968 45.238C34.8507 43.8907 32.8893 43.1338 30.8442 43.1338H7.71106C5.66596 43.1338 3.70462 43.8907 2.25852 45.238C0.812413 46.5853 0 48.4126 0 50.3179C0 52.2233 0.812413 54.0506 2.25852 55.3979C3.70462 56.7452 5.66596 57.5021 7.71106 57.5021H30.8442ZM107.955 71.8704C107.955 73.7757 107.142 75.6031 105.696 76.9503C104.25 78.2976 102.289 79.0545 100.244 79.0545H84.8216C82.7766 79.0545 80.8152 78.2976 79.3691 76.9503C77.923 75.6031 77.1106 73.7757 77.1106 71.8704C77.1106 69.965 77.923 68.1377 79.3691 66.7904C80.8152 65.4431 82.7766 64.6862 84.8216 64.6862H100.244C102.289 64.6862 104.25 65.4431 105.696 66.7904C107.142 68.1377 107.955 69.965 107.955 71.8704ZM100.244 100.607C102.289 100.607 104.25 99.8501 105.696 98.5028C107.142 97.1555 107.955 95.3282 107.955 93.4228C107.955 91.5175 107.142 89.6902 105.696 88.3429C104.25 86.9956 102.289 86.2387 100.244 86.2387H77.1106C75.0655 86.2387 73.1042 86.9956 71.6581 88.3429C70.2119 89.6902 69.3995 91.5175 69.3995 93.4228C69.3995 95.3282 70.2119 97.1555 71.6581 98.5028C73.1042 99.8501 75.0655 100.607 77.1106 100.607H100.244Z" fill="#30E291"/>
</svg>
