<svg width="22" height="22" viewBox="0 0 22 22" fill="none" xmlns="http://www.w3.org/2000/svg">
<path d="M20 20L14 14M2 9C2 9.91925 2.18106 10.8295 2.53284 11.6788C2.88463 12.5281 3.40024 13.2997 4.05025 13.9497C4.70026 14.5998 5.47194 15.1154 6.32122 15.4672C7.1705 15.8189 8.08075 16 9 16C9.91925 16 10.8295 15.8189 11.6788 15.4672C12.5281 15.1154 13.2997 14.5998 13.9497 13.9497C14.5998 13.2997 15.1154 12.5281 15.4672 11.6788C15.8189 10.8295 16 9.91925 16 9C16 8.08075 15.8189 7.1705 15.4672 6.32122C15.1154 5.47194 14.5998 4.70026 13.9497 4.05025C13.2997 3.40024 12.5281 2.88463 11.6788 2.53284C10.8295 2.18106 9.91925 2 9 2C8.08075 2 7.1705 2.18106 6.32122 2.53284C5.47194 2.88463 4.70026 3.40024 4.05025 4.05025C3.40024 4.70026 2.88463 5.47194 2.53284 6.32122C2.18106 7.1705 2 8.08075 2 9Z" stroke="#BBBBBB" stroke-width="3" stroke-linecap="round" stroke-linejoin="round"/>
</svg>
