<svg width="85" height="87" viewBox="0 0 85 87" fill="none" xmlns="http://www.w3.org/2000/svg">
<path d="M20.5699 81.4346H69.5807M35.2732 81.4346C62.2291 69.5179 39.194 50.9278 49.9764 33.7677" stroke="#30E291" stroke-width="10" stroke-linecap="round" stroke-linejoin="round"/>
<path d="M32.8227 30.9076C38.2139 34.721 41.6447 41.3944 44.0952 48.5444C34.2931 50.4511 26.9414 50.4511 20.57 47.1144C14.6888 44.2544 9.29757 38.0577 5.86682 27.0943C19.5898 24.711 27.4315 27.0943 32.8227 30.9076ZM55.3677 14.7009C51.631 20.3807 49.7514 27.0283 49.9765 33.7677C59.2885 33.291 66.15 30.9076 71.0511 27.0943C75.9522 22.3276 78.8928 16.1309 79.3829 5.16753C66.15 5.6442 59.7786 9.93421 55.3677 14.7009Z" stroke="#30E291" stroke-width="10" stroke-linecap="round" stroke-linejoin="round"/>
<path d="M57.7213 10.0612L75.7815 8.39917L77.9706 10.0612L68.6669 27.7891L50.0594 31.6671V21.1411C50.0594 19.8115 55.1674 13.2005 57.7213 10.0612Z" fill="#30E291"/>
<path d="M16.0813 46.5872L9.75633 30.0509L10.8404 27.5642L30.855 31.7162L39.5224 48.1931L29.0685 50.9174C27.748 51.2615 19.8601 48.174 16.0813 46.5872Z" fill="#30E291"/>
</svg>
