<svg width="167" height="26" viewBox="0 0 167 26" fill="none" xmlns="http://www.w3.org/2000/svg">
<path d="M9.79899 4.43043C11.446 1.47681 12.2689 0 13.5 0C14.7311 0 15.554 1.47681 17.201 4.43043L17.6274 5.19483C18.0954 6.03464 18.3294 6.45454 18.6934 6.73144C19.0574 7.00834 19.5124 7.11104 20.4223 7.31645L21.2491 7.50365C24.447 8.22775 26.0447 8.58916 26.4256 9.81246C26.8052 11.0345 25.7158 12.3098 23.5358 14.8591L22.9716 15.5182C22.3528 16.2423 22.0421 16.605 21.903 17.0522C21.7639 17.5007 21.8107 17.9843 21.9043 18.9502L21.9901 19.8303C22.319 23.2324 22.4841 24.9329 21.4883 25.6882C20.4925 26.4435 18.995 25.7545 16.0024 24.3765L15.2264 24.0203C14.3762 23.6276 13.9511 23.4326 13.5 23.4326C13.0489 23.4326 12.6238 23.6276 11.7736 24.0203L10.9989 24.3765C8.00503 25.7545 6.50746 26.4435 5.51299 25.6895C4.51591 24.9329 4.68101 23.2324 5.0099 19.8303L5.0957 18.9515C5.1893 17.9843 5.23609 17.5007 5.0957 17.0535C4.9579 16.605 4.64721 16.2423 4.02842 15.5195L3.46424 14.8591C1.28419 12.3111 0.194813 11.0358 0.574404 9.81246C0.953995 8.58916 2.55426 8.22645 5.75218 7.50365L6.57896 7.31645C7.48764 7.11104 7.94133 7.00834 8.30662 6.73144C8.67191 6.45454 8.90461 6.03464 9.3726 5.19483L9.79899 4.43043Z" fill="#30E291"/>
<path d="M44.799 4.43043C46.446 1.47681 47.2689 0 48.5 0C49.7311 0 50.554 1.47681 52.201 4.43043L52.6274 5.19483C53.0954 6.03464 53.3294 6.45454 53.6934 6.73144C54.0574 7.00834 54.5124 7.11104 55.4223 7.31645L56.2491 7.50365C59.447 8.22775 61.0447 8.58916 61.4256 9.81246C61.8052 11.0345 60.7158 12.3098 58.5358 14.8591L57.9716 15.5182C57.3528 16.2423 57.0421 16.605 56.903 17.0522C56.7639 17.5007 56.8107 17.9843 56.9043 18.9502L56.9901 19.8303C57.319 23.2324 57.4841 24.9329 56.4883 25.6882C55.4925 26.4435 53.995 25.7545 51.0024 24.3765L50.2264 24.0203C49.3762 23.6276 48.9511 23.4326 48.5 23.4326C48.0489 23.4326 47.6238 23.6276 46.7736 24.0203L45.9989 24.3765C43.005 25.7545 41.5075 26.4435 40.513 25.6895C39.5159 24.9329 39.681 23.2324 40.0099 19.8303L40.0957 18.9515C40.1893 17.9843 40.2361 17.5007 40.0957 17.0535C39.9579 16.605 39.6472 16.2423 39.0284 15.5195L38.4642 14.8591C36.2842 12.3111 35.1948 11.0358 35.5744 9.81246C35.954 8.58916 37.5543 8.22645 40.7522 7.50365L41.579 7.31645C42.4876 7.11104 42.9413 7.00834 43.3066 6.73144C43.6719 6.45454 43.9046 6.03464 44.3726 5.19483L44.799 4.43043Z" fill="#30E291"/>
<path d="M79.799 4.43043C81.446 1.47681 82.2689 0 83.5 0C84.7311 0 85.554 1.47681 87.201 4.43043L87.6274 5.19483C88.0954 6.03464 88.3294 6.45454 88.6934 6.73144C89.0574 7.00834 89.5124 7.11104 90.4223 7.31645L91.2491 7.50365C94.447 8.22775 96.0447 8.58916 96.4256 9.81246C96.8052 11.0345 95.7158 12.3098 93.5358 14.8591L92.9716 15.5182C92.3528 16.2423 92.0421 16.605 91.903 17.0522C91.7639 17.5007 91.8107 17.9843 91.9043 18.9502L91.9901 19.8303C92.319 23.2324 92.4841 24.9329 91.4883 25.6882C90.4925 26.4435 88.995 25.7545 86.0024 24.3765L85.2264 24.0203C84.3762 23.6276 83.9511 23.4326 83.5 23.4326C83.0489 23.4326 82.6238 23.6276 81.7736 24.0203L80.9989 24.3765C78.005 25.7545 76.5075 26.4435 75.513 25.6895C74.5159 24.9329 74.681 23.2324 75.0099 19.8303L75.0957 18.9515C75.1893 17.9843 75.2361 17.5007 75.0957 17.0535C74.9579 16.605 74.6472 16.2423 74.0284 15.5195L73.4642 14.8591C71.2842 12.3111 70.1948 11.0358 70.5744 9.81246C70.954 8.58916 72.5543 8.22645 75.7522 7.50365L76.579 7.31645C77.4876 7.11104 77.9413 7.00834 78.3066 6.73144C78.6719 6.45454 78.9046 6.03464 79.3726 5.19483L79.799 4.43043Z" fill="#30E291"/>
<path d="M114.799 4.43043C116.446 1.47681 117.269 0 118.5 0C119.731 0 120.554 1.47681 122.201 4.43043L122.627 5.19483C123.095 6.03464 123.329 6.45454 123.693 6.73144C124.057 7.00834 124.512 7.11104 125.422 7.31645L126.249 7.50365C129.447 8.22775 131.045 8.58916 131.426 9.81246C131.805 11.0345 130.716 12.3098 128.536 14.8591L127.972 15.5182C127.353 16.2423 127.042 16.605 126.903 17.0522C126.764 17.5007 126.811 17.9843 126.904 18.9502L126.99 19.8303C127.319 23.2324 127.484 24.9329 126.488 25.6882C125.493 26.4435 123.995 25.7545 121.002 24.3765L120.226 24.0203C119.376 23.6276 118.951 23.4326 118.5 23.4326C118.049 23.4326 117.624 23.6276 116.774 24.0203L115.999 24.3765C113.005 25.7545 111.507 26.4435 110.513 25.6895C109.516 24.9329 109.681 23.2324 110.01 19.8303L110.096 18.9515C110.189 17.9843 110.236 17.5007 110.096 17.0535C109.958 16.605 109.647 16.2423 109.028 15.5195L108.464 14.8591C106.284 12.3111 105.195 11.0358 105.574 9.81246C105.954 8.58916 107.554 8.22645 110.752 7.50365L111.579 7.31645C112.488 7.11104 112.941 7.00834 113.307 6.73144C113.672 6.45454 113.905 6.03464 114.373 5.19483L114.799 4.43043Z" fill="#30E291"/>
<path d="M149.799 4.43043C151.446 1.47681 152.269 0 153.5 0C154.731 0 155.554 1.47681 157.201 4.43043L157.627 5.19483C158.095 6.03464 158.329 6.45454 158.693 6.73144C159.057 7.00834 159.512 7.11104 160.422 7.31645L161.249 7.50365C164.447 8.22775 166.045 8.58916 166.426 9.81246C166.805 11.0345 165.716 12.3098 163.536 14.8591L162.972 15.5182C162.353 16.2423 162.042 16.605 161.903 17.0522C161.764 17.5007 161.811 17.9843 161.904 18.9502L161.99 19.8303C162.319 23.2324 162.484 24.9329 161.488 25.6882C160.493 26.4435 158.995 25.7545 156.002 24.3765L155.226 24.0203C154.376 23.6276 153.951 23.4326 153.5 23.4326C153.049 23.4326 152.624 23.6276 151.774 24.0203L150.999 24.3765C148.005 25.7545 146.507 26.4435 145.513 25.6895C144.516 24.9329 144.681 23.2324 145.01 19.8303L145.096 18.9515C145.189 17.9843 145.236 17.5007 145.096 17.0535C144.958 16.605 144.647 16.2423 144.028 15.5195L143.464 14.8591C141.284 12.3111 140.195 11.0358 140.574 9.81246C140.954 8.58916 142.554 8.22645 145.752 7.50365L146.579 7.31645C147.488 7.11104 147.941 7.00834 148.307 6.73144C148.672 6.45454 148.905 6.03464 149.373 5.19483L149.799 4.43043Z" fill="#30E291"/>
</svg>
