<svg width="91" height="90" viewBox="0 0 91 90" fill="none" xmlns="http://www.w3.org/2000/svg">
<path d="M66.3801 24.3749C64.8017 22.8145 63.8776 20.7228 63.7924 18.5181C63.7073 16.3134 64.4675 14.1582 65.921 12.4836C66.0412 12.3443 66.1037 12.1652 66.096 11.9823C66.0882 11.7994 66.0108 11.6262 65.8792 11.4973L57.5063 3.21351C57.3679 3.0768 57.1802 3 56.9846 3C56.7889 3 56.6012 3.0768 56.4628 3.21351L43.117 16.4023C42.6244 16.8887 42.2535 17.482 42.0336 18.1348C41.8144 18.7892 41.4439 19.384 40.9515 19.8722C40.4592 20.3604 39.8585 20.7285 39.1971 20.9474C38.536 21.165 37.9352 21.5316 37.442 22.018L3.21605 55.8338C3.07771 55.9706 3 56.1561 3 56.3494C3 56.5428 3.07771 56.7283 3.21605 56.8651L11.589 65.1395C11.7194 65.2695 11.8947 65.346 12.0798 65.3537C12.2649 65.3613 12.446 65.2995 12.587 65.1807C14.2812 63.7428 16.4626 62.9903 18.6943 63.0739C20.926 63.1576 23.0434 64.0712 24.6226 65.6318C26.2018 67.1924 27.1263 69.2849 27.2109 71.4903C27.2955 73.6958 26.5341 75.8515 25.079 77.5258C24.9588 77.6651 24.8963 77.8441 24.904 78.027C24.9118 78.2099 24.9892 78.3832 25.1208 78.5121L33.4937 86.7865C33.6321 86.9232 33.8198 87 34.0154 87C34.2111 87 34.3988 86.9232 34.5372 86.7865L68.7651 52.9632C69.2573 52.4758 69.6282 51.8821 69.8485 51.2288C70.0677 50.5744 70.4382 49.9796 70.9305 49.4914C71.4229 49.0032 72.0236 48.6351 72.685 48.4163C73.3456 48.199 73.9459 47.8324 74.4381 47.3456L87.7839 34.1568C87.9223 34.02 88 33.8346 88 33.6412C88 33.4478 87.9223 33.2623 87.7839 33.1256L79.411 24.8511C79.2806 24.7211 79.1053 24.6446 78.9202 24.637C78.7351 24.6293 78.554 24.6911 78.413 24.8099C76.7207 26.2487 74.5412 27.0032 72.3103 26.9226C70.0794 26.8419 67.9615 25.9321 66.3801 24.3749Z" stroke="#3D5567" stroke-width="5" stroke-miterlimit="10"/>
<path d="M44.744 24.4748L41.6473 21.4146ZM53.0006 32.6343L50.9356 30.5953ZM61.2573 40.7956L59.194 38.7548ZM70.5473 49.9746L67.4506 46.9143Z" fill="#3D5567"/>
<path d="M44.744 24.4748L41.6473 21.4146M53.0006 32.6343L50.9356 30.5953M61.2573 40.7956L59.194 38.7548M70.5473 49.9746L67.4506 46.9143" stroke="#3D5567" stroke-width="5" stroke-miterlimit="10" stroke-linecap="round"/>
</svg>
