<svg width="91" height="90" viewBox="0 0 91 90" fill="none" xmlns="http://www.w3.org/2000/svg">
<path d="M66.2561 24.7499C64.6777 23.1895 63.7535 21.0978 63.6684 18.8931C63.5833 16.6884 64.3435 14.5332 65.797 12.8586C65.9172 12.7193 65.9797 12.5402 65.9719 12.3573C65.9642 12.1744 65.8868 12.0012 65.7552 11.8723L57.3823 3.58851C57.2439 3.4518 57.0562 3.375 56.8605 3.375C56.6648 3.375 56.4772 3.4518 56.3388 3.58851L42.9929 16.7773C42.5004 17.2637 42.1295 17.857 41.9095 18.5098C41.6903 19.1642 41.3199 19.759 40.8275 20.2472C40.3351 20.7354 39.7344 21.1035 39.073 21.3224C38.412 21.54 37.8112 21.9066 37.318 22.393L3.09203 56.2088C2.95369 56.3456 2.87598 56.5311 2.87598 56.7244C2.87598 56.9178 2.95369 57.1033 3.09203 57.2401L11.465 65.5145C11.5954 65.6445 11.7707 65.721 11.9558 65.7287C12.1408 65.7363 12.322 65.6745 12.463 65.5557C14.1572 64.1178 16.3385 63.3653 18.5703 63.4489C20.802 63.5326 22.9194 64.4462 24.4986 66.0068C26.0778 67.5674 27.0022 69.6599 27.0869 71.8653C27.1715 74.0708 26.4101 76.2265 24.955 77.9008C24.8348 78.0401 24.7723 78.2191 24.78 78.402C24.7878 78.5849 24.8652 78.7582 24.9967 78.8871L33.3697 87.1615C33.5081 87.2982 33.6957 87.375 33.8914 87.375C34.0871 87.375 34.2748 87.2982 34.4132 87.1615L68.6411 53.3382C69.1333 52.8508 69.5042 52.2571 69.7244 51.6038C69.9436 50.9494 70.3141 50.3546 70.8065 49.8664C71.2989 49.3782 71.8996 49.0101 72.561 48.7913C73.2216 48.574 73.8219 48.2074 74.3141 47.7206L87.6599 34.5318C87.7983 34.395 87.876 34.2096 87.876 34.0162C87.876 33.8228 87.7983 33.6373 87.6599 33.5006L79.287 25.2261C79.1566 25.0961 78.9813 25.0196 78.7962 25.012C78.6111 25.0043 78.4299 25.0661 78.289 25.1849C76.5967 26.6237 74.4172 27.3782 72.1863 27.2976C69.9554 27.2169 67.8375 26.3071 66.2561 24.7499Z" stroke="#F8F8F8" stroke-width="5" stroke-miterlimit="10"/>
<path d="M44.6201 24.8498L41.5234 21.7896ZM52.8767 33.0093L50.8117 30.9703ZM61.1333 41.1706L59.0701 39.1298ZM70.4234 50.3496L67.3267 47.2893Z" fill="#30E291"/>
<path d="M44.6201 24.8498L41.5234 21.7896M52.8767 33.0093L50.8117 30.9703M61.1333 41.1706L59.0701 39.1298M70.4234 50.3496L67.3267 47.2893" stroke="#F8F8F8" stroke-width="5" stroke-miterlimit="10" stroke-linecap="round"/>
</svg>
