<svg width="28" height="33" viewBox="0 0 28 33" fill="none" xmlns="http://www.w3.org/2000/svg">
<path d="M25.2023 14.3772L25.2011 14.376L16.7712 6.00655L15.0666 4.31421V6.71619V30.6104C15.0666 30.8602 14.9668 31.1012 14.7866 31.28C14.6063 31.4591 14.3601 31.5609 14.102 31.5609C13.8438 31.5609 13.5977 31.4591 13.4173 31.28C13.2372 31.1012 13.1373 30.8602 13.1373 30.6104V6.71619V4.31487L11.4329 6.00641L2.99972 14.3759L2.99959 14.376C2.81859 14.5557 2.57158 14.658 2.31253 14.658C2.05347 14.658 1.80647 14.5557 1.62547 14.376C1.44471 14.1966 1.34448 13.9547 1.34448 13.704C1.34448 13.4534 1.44471 13.2115 1.62547 13.032L13.4133 1.32876L13.4145 1.32753C13.5038 1.23857 13.6103 1.16761 13.7281 1.11905C13.8459 1.0705 13.9724 1.04541 14.1003 1.04541C14.2283 1.04541 14.3548 1.0705 14.4726 1.11905C14.5904 1.16761 14.6969 1.23857 14.7862 1.32753L14.7874 1.32876L26.5752 13.032L26.5765 13.0333C26.666 13.1219 26.7367 13.2268 26.7849 13.3419C26.833 13.4569 26.8576 13.5799 26.8576 13.704C26.8576 13.8281 26.833 13.9512 26.7849 14.0662C26.7367 14.1812 26.666 14.2862 26.5765 14.3748L26.574 14.3772C26.4847 14.4662 26.3782 14.5372 26.2604 14.5857C26.1427 14.6343 26.0161 14.6594 25.8882 14.6594C25.7602 14.6594 25.6337 14.6343 25.5159 14.5857C25.3981 14.5372 25.2916 14.4662 25.2023 14.3772Z" fill="#F8F8F8" stroke="white" stroke-width="2"/>
</svg>
